<?xml version="1.0" standalone="no"?><!DOCTYPE svg PUBLIC "-//W3C//DTD SVG 1.1//EN" "http://www.w3.org/Graphics/SVG/1.1/DTD/svg11.dtd"><svg t="1686043815048" class="icon" viewBox="0 0 1024 1024" version="1.1" xmlns="http://www.w3.org/2000/svg" p-id="10009" xmlns:xlink="http://www.w3.org/1999/xlink" width="32" height="32"><path d="M233.472 865.28H230.4c-114.688 0-219.136-119.808-219.136-236.544 0-131.072 84.992-240.64 188.416-269.312 44.032-125.952 180.224-225.28 325.632-225.28 156.672 0 286.72 116.736 313.344 261.12C733.184 403.456 640 454.656 607.232 520.192c-13.312 29.696-16.384 38.912 0 31.744 39.936-76.8 125.952-119.808 219.136-128 59.392 8.192 107.52 14.336 156.672 97.28 18.432 31.744 31.744 78.848 31.744 145.408 0 99.328-96.256 199.68-194.56 199.68l-586.752-1.024z m223.232-112.64H512v112.64h-55.296V752.64z m166.912 0h55.296v112.64h-55.296V752.64z m-334.848 0h55.296v112.64h-55.296V752.64z m0 0" fill="#1296DB" p-id="10010"></path></svg>