<?xml version="1.0" standalone="no"?><!DOCTYPE svg PUBLIC "-//W3C//DTD SVG 1.1//EN" "http://www.w3.org/Graphics/SVG/1.1/DTD/svg11.dtd"><svg t="1686043863280" class="icon" viewBox="0 0 1024 1024" version="1.1" xmlns="http://www.w3.org/2000/svg" p-id="15272" xmlns:xlink="http://www.w3.org/1999/xlink" width="32" height="32"><path d="M853.333333 341.333333H0l128-341.333333h597.333333z" fill="#00D7C0" p-id="15273"></path><path d="M119.466667 469.333333m-42.666667 0a42.666667 42.666667 0 1 0 85.333333 0 42.666667 42.666667 0 1 0-85.333333 0Z" fill="#10B29E" p-id="15274"></path><path d="M119.466667 682.666667m-42.666667 0a42.666667 42.666667 0 1 0 85.333333 0 42.666667 42.666667 0 1 0-85.333333 0Z" fill="#10B29E" p-id="15275"></path><path d="M119.466667 896m-42.666667 0a42.666667 42.666667 0 1 0 85.333333 0 42.666667 42.666667 0 1 0-85.333333 0Z" fill="#10B29E" p-id="15276"></path><path d="M247.466667 469.333333m-42.666667 0a42.666667 42.666667 0 1 0 85.333333 0 42.666667 42.666667 0 1 0-85.333333 0Z" fill="#10B29E" p-id="15277"></path><path d="M247.466667 682.666667m-42.666667 0a42.666667 42.666667 0 1 0 85.333333 0 42.666667 42.666667 0 1 0-85.333333 0Z" fill="#10B29E" p-id="15278"></path><path d="M247.466667 896m-42.666667 0a42.666667 42.666667 0 1 0 85.333333 0 42.666667 42.666667 0 1 0-85.333333 0Z" fill="#10B29E" p-id="15279"></path><path d="M810.666667 384v170.666667H42.666667V384h768m42.666666-42.666667H0v256h853.333333V341.333333z" fill="#00D7C0" p-id="15280"></path><path d="M810.666667 597.333333v170.666667H42.666667v-170.666667h768m42.666666-42.666666H0v256h853.333333v-256z" fill="#00D7C0" p-id="15281"></path><path d="M810.666667 810.666667v170.666666H42.666667v-170.666666h768m42.666666-42.666667H0v256h853.333333v-256zM512 426.666667h170.666667v85.333333h-170.666667zM512 640h170.666667v85.333333h-170.666667z" fill="#00D7C0" p-id="15282"></path><path d="M512 853.333333h170.666667v85.333334h-170.666667z" fill="#00D7C0" p-id="15283"></path><path d="M913.066667 721.066667c-8.533333-93.866667-85.333333-166.4-183.466667-166.4s-174.933333 72.533333-183.466667 166.4c-64 17.066667-110.933333 76.8-110.933333 149.333333 0 85.333333 68.266667 153.6 153.6 153.6h277.333333c85.333333 0 153.6-68.266667 153.6-153.6 4.266667-72.533333-42.666667-128-106.666666-149.333333z" fill="#53D2FE" p-id="15284"></path><path d="M669.866667 793.6v93.866667c0 17.066667-12.8 29.866667-25.6 29.866666s-25.6-12.8-25.6-29.866666v-93.866667h-55.466667l85.333333-98.133333 93.866667 98.133333h-72.533333zM840.533333 819.2V725.333333c0-17.066667-12.8-29.866667-25.6-29.866666s-25.6 12.8-25.6 29.866666v93.866667h-55.466666l85.333333 98.133333 93.866667-98.133333h-72.533334z" fill="#FFFF33" p-id="15285"></path></svg>