<?xml version="1.0" standalone="no"?><!DOCTYPE svg PUBLIC "-//W3C//DTD SVG 1.1//EN" "http://www.w3.org/Graphics/SVG/1.1/DTD/svg11.dtd"><svg t="1686043750669" class="icon" viewBox="0 0 1281 1024" version="1.1" xmlns="http://www.w3.org/2000/svg" p-id="4606" xmlns:xlink="http://www.w3.org/1999/xlink" width="40.03125" height="32"><path d="M698.228977 554.018237v440.932118a29.568389 29.568389 0 0 1-29.568389 29.049645 29.049645 29.049645 0 0 1-29.049646-29.049645v-441.450862L529.118541 663.991895a30.605876 30.605876 0 0 1-43.574468-41.499494l161.329281-161.32928a31.12462 31.12462 0 0 1 43.574468 0L778.115502 545.199595l71.067882 70.549139a31.12462 31.12462 0 0 1-44.093212 44.093211l-70.549139-71.067882zM781.746707 726.241135v215.797366h200.235056a299.83384 299.83384 0 0 0 299.83384-299.315097 287.383992 287.383992 0 0 0-207.497467-284.27153 228.247214 228.247214 0 0 0 5.70618-60.693009A303.465046 303.465046 0 0 0 778.115502 0c-138.504559 0-272.859169 92.336373-292.052685 224.616008A298.277609 298.277609 0 0 0 368.826748 207.497467 375.570415 375.570415 0 0 0 0 575.286727a371.420466 371.420466 0 0 0 368.826748 365.714286h187.266464v-207.497467A108.417427 108.417427 0 0 1 414.994934 570.618034l178.447822-177.410334a109.454914 109.454914 0 0 1 155.6231 0l173.260385 169.629179A108.417427 108.417427 0 0 1 781.746707 726.241135z" fill="#6BC09C" p-id="4607"></path></svg>